<?xml version="1.0" encoding="utf-8"?>
<svg viewBox="-31.031 70.867 356.561 478.422" xmlns="http://www.w3.org/2000/svg">
  <ellipse cx="308.03" cy="284.991" rx="17.5" ry="21" fill="#fff" opacity="0.4"/>
  <path d="M66,369.85713c0,45.83964,37.16037,119,83,119s83-73.16036,83-119a83,83,0,0,0-166,0Z" fill="#ff6584" transform="matrix(1, 0, 0, 1, -97.031366, -151.399462)"/>
  <path d="M145.926,491.80854c10.43048,3.59136,12.92756,17.81494,9.33986,28.24668s-11.18624,19.08463-15.00958,29.43232a88.19944,88.19944,0,0,0-3.74052,16.04114c-2.18414,12.981-4.37428,26.19026-2.69137,39.24565,1.59646,12.38466,6.614,24.06061,12.21177,35.22275a329.51138,329.51138,0,0,0,39.3229,60.69117" fill="none" stroke="#2f2e41" stroke-width="2" transform="matrix(1, 0, 0, 1, -97.031366, -151.399462)"/>
  <path d="M141,496.85713q8-5.13386,16,0v-16H141Z" fill="#ff6584" transform="matrix(1, 0, 0, 1, -97.031366, -151.399462)"/>
  <path d="M156.95807,488.51827a17.60008,17.60008,0,0,1-16.02856-.06574" fill="none" stroke="#2f2e41" stroke-width="2" transform="matrix(1, 0, 0, 1, -97.031366, -151.399462)"/>
  <ellipse cx="48.5" cy="300.71426" rx="17.5" ry="21" fill="#fff" opacity="0.4" transform="matrix(1, 0, 0, 1, -31.031363, -117.256594)"/>
  <path d="M 159.604 275.942 C 149.174 279.533 146.677 293.757 150.264 304.189 C 153.852 314.62 161.451 323.273 165.274 333.621 C 167.018 338.84 168.271 344.21 169.014 349.662 C 171.199 362.643 173.389 375.852 171.706 388.908 C 170.109 401.292 165.092 412.968 159.494 424.131 C 148.653 445.742 135.466 466.095 120.171 484.822" fill="none" stroke="#2f2e41" stroke-width="2"/>
  <path d="M 239.53 153.991 C 239.53 199.83 202.37 272.991 156.53 272.991 C 110.691 272.991 73.53 199.83 73.53 153.991 C 73.53 90.097 142.697 50.164 198.03 82.111 C 223.71 96.937 239.53 124.338 239.53 153.991 L 239.53 153.991 Z" fill="#6c63ff"/>
  <path d="M 164.53 280.991 C 159.197 277.568 153.863 277.568 148.53 280.991 L 148.53 264.991 L 164.53 264.991 L 164.53 280.991 Z" fill="#6c63ff"/>
  <path d="M 148.572 272.652 C 153.615 275.205 159.578 275.181 164.601 272.586" fill="none" stroke="#2f2e41" stroke-width="2"/>
  <ellipse cx="191.03" cy="118.991" rx="17.5" ry="21" fill="#fff" opacity="0.4"/>
</svg>